<?xml version="1.0" standalone="no"?>
<!DOCTYPE svg PUBLIC "-//W3C//DTD SVG 20010904//EN"
 "http://www.w3.org/TR/2001/REC-SVG-20010904/DTD/svg10.dtd">
<svg version="1.0" xmlns="http://www.w3.org/2000/svg"
 width="875.000000pt" height="300.000000pt" viewBox="0 0 875.000000 300.000000"
 preserveAspectRatio="xMidYMid meet">

<g transform="translate(0.000000,300.000000) scale(0.100000,-0.100000)"
fill="#000000" stroke="none">
<path d="M1370 2609 c-61 -35 -84 -81 -89 -173 -5 -122 10 -116 -268 -116
-261 0 -280 -4 -330 -64 -44 -54 -53 -97 -53 -249 0 -160 0 -160 125 -246 179
-124 313 -161 587 -161 l177 0 16 29 c8 16 27 39 41 50 25 19 39 21 193 21
185 0 214 -8 246 -70 l16 -30 152 0 c83 0 191 5 240 10 149 17 316 90 437 191
l60 50 0 161 c0 188 -11 225 -82 274 l-41 29 -238 5 c-176 4 -241 8 -251 18
-7 7 -15 49 -19 97 -4 74 -9 89 -35 121 -60 75 -53 74 -474 74 -359 0 -376 -1
-410 -21z m740 -158 c5 -11 10 -38 10 -60 0 -72 5 -71 -328 -71 -345 0 -342
-1 -342 79 0 26 5 52 12 59 9 9 95 12 325 12 299 0 313 -1 323 -19z"/>
<path d="M5579 1990 c-95 -16 -169 -75 -210 -165 -22 -47 -23 -64 -27 -331 -4
-310 3 -374 46 -444 34 -54 99 -105 155 -122 23 -6 79 -11 125 -11 100 1 172
31 226 95 66 77 71 106 71 443 0 260 -2 307 -18 350 -36 103 -112 162 -238
184 -36 6 -70 10 -75 10 -5 -1 -30 -5 -55 -9z m151 -162 c66 -34 69 -47 69
-372 1 -260 0 -283 -19 -321 -25 -52 -58 -70 -126 -70 -61 0 -99 23 -126 76
-16 30 -18 67 -18 319 0 257 2 289 18 319 37 69 122 89 202 49z"/>
<path d="M3292 1982 c-10 -7 -12 -120 -10 -533 l3 -524 250 0 250 0 3 73 3 72
-159 0 c-109 0 -162 4 -170 12 -8 8 -12 59 -12 165 l0 152 143 3 142 3 3 68 3
67 -134 0 c-90 0 -137 4 -145 12 -8 8 -12 55 -12 145 l0 133 154 0 c120 0 156
3 165 14 7 9 11 40 9 78 l-3 63 -235 2 c-129 2 -241 -1 -248 -5z"/>
<path d="M3867 1983 c-2 -5 52 -126 120 -271 l124 -263 -121 -258 c-66 -142
-120 -261 -120 -265 0 -12 167 -6 177 7 5 6 40 85 78 175 37 89 71 162 74 162
4 0 37 -69 75 -152 96 -214 81 -198 176 -198 62 0 80 3 80 14 0 8 -57 130
-126 272 l-125 257 20 46 c11 25 61 133 111 240 50 107 92 204 93 215 2 19 -4
21 -79 24 -57 2 -84 -1 -92 -10 -5 -7 -38 -83 -72 -168 -34 -85 -65 -159 -69
-163 -5 -4 -39 67 -76 158 -39 96 -76 170 -86 175 -21 12 -156 13 -162 3z"/>
<path d="M4642 1977 c-9 -11 -12 -140 -10 -533 l3 -519 73 -3 c46 -2 79 2 88
9 11 9 14 49 14 194 l0 183 123 4 c138 5 180 20 235 82 50 57 66 129 60 271
-8 175 -49 256 -153 302 -56 24 -414 33 -433 10z m374 -158 c35 -33 45 -83 38
-195 -6 -101 -20 -146 -53 -164 -11 -5 -58 -10 -105 -10 l-86 0 0 194 c0 225
-10 207 113 202 55 -3 73 -8 93 -27z"/>
<path d="M6132 1973 c-4 -10 -7 -250 -7 -533 l0 -515 77 -3 77 -3 6 43 c4 24
5 181 3 351 -2 169 0 307 3 307 5 0 64 -125 290 -617 l38 -83 60 0 c33 0 63 5
66 10 3 6 9 247 12 535 l6 526 -79 -3 -79 -3 4 -345 c2 -234 0 -342 -7 -335
-6 6 -79 156 -162 335 -83 179 -159 331 -168 338 -9 6 -42 12 -74 12 -46 0
-60 -4 -66 -17z"/>
<path d="M6874 1976 c-3 -7 -4 -42 -2 -77 l3 -64 108 -3 107 -3 0 -455 0 -455
78 3 77 3 3 453 2 452 93 0 c59 0 97 4 105 12 7 7 12 40 12 80 l0 68 -290 0
c-235 0 -292 -3 -296 -14z"/>
<path d="M7575 1978 c-3 -7 -4 -247 -3 -533 l3 -520 244 -3 c189 -2 246 1 253
10 9 15 11 99 2 122 -5 14 -29 16 -159 16 -118 0 -155 3 -164 14 -8 9 -11 61
-9 162 l3 149 138 3 137 3 0 69 0 69 -137 3 -138 3 0 140 0 140 149 3 c90 1
155 7 163 14 8 7 13 34 13 79 l0 69 -245 0 c-187 0 -247 -3 -250 -12z"/>
<path d="M632 1196 l3 -504 30 -44 c17 -23 51 -56 75 -73 l45 -30 996 0 995 0
42 28 c23 15 54 46 69 69 l28 42 3 503 c1 290 -1 503 -6 503 -5 0 -21 -9 -35
-20 -72 -57 -198 -117 -332 -157 -70 -21 -107 -25 -297 -30 l-218 -6 0 -99 c0
-113 -13 -154 -59 -181 -40 -24 -355 -25 -388 -2 -49 34 -63 76 -63 182 l0
100 -212 6 c-191 4 -222 8 -301 31 -116 34 -199 73 -292 135 -41 28 -78 51
-81 51 -2 0 -3 -227 -2 -504z"/>
<path d="M1640 1453 c0 -71 4 -134 8 -141 7 -9 39 -12 128 -10 l119 3 3 138 3
137 -131 0 -130 0 0 -127z"/>
</g>
</svg>
