<?xml version="1.0" standalone="no"?>
<!DOCTYPE svg PUBLIC "-//W3C//DTD SVG 20010904//EN"
 "http://www.w3.org/TR/2001/REC-SVG-20010904/DTD/svg10.dtd">
<svg version="1.0" xmlns="http://www.w3.org/2000/svg"
 width="298.000000pt" height="300.000000pt" viewBox="0 0 298.000000 300.000000"
 preserveAspectRatio="xMidYMid meet">

<g transform="translate(0.000000,300.000000) scale(0.100000,-0.100000)"
fill="#000000" stroke="none">
<path d="M1080 2609 c-61 -35 -84 -81 -89 -173 -5 -122 10 -116 -268 -116
-261 0 -280 -4 -330 -64 -44 -54 -53 -97 -53 -249 0 -160 0 -160 125 -246 179
-124 313 -161 587 -161 l177 0 16 29 c8 16 27 39 41 50 25 19 39 21 193 21
185 0 214 -8 246 -70 l16 -30 152 0 c83 0 191 5 240 10 149 17 316 90 437 191
l60 50 0 161 c0 188 -11 225 -82 274 l-41 29 -238 5 c-176 4 -241 8 -251 18
-7 7 -15 49 -19 97 -4 74 -9 89 -35 121 -60 75 -53 74 -474 74 -359 0 -376 -1
-410 -21z m740 -158 c5 -11 10 -38 10 -60 0 -72 5 -71 -328 -71 -345 0 -342
-1 -342 79 0 26 5 52 12 59 9 9 95 12 325 12 299 0 313 -1 323 -19z"/>
<path d="M342 1196 l3 -504 30 -44 c17 -23 51 -56 75 -73 l45 -30 996 0 995 0
42 28 c23 15 54 46 69 69 l28 42 3 503 c1 290 -1 503 -6 503 -5 0 -21 -9 -35
-20 -72 -57 -198 -117 -332 -157 -70 -21 -107 -25 -297 -30 l-218 -6 0 -99 c0
-113 -13 -154 -59 -181 -40 -24 -355 -25 -388 -2 -49 34 -63 76 -63 182 l0
100 -212 6 c-191 4 -222 8 -301 31 -116 34 -199 73 -292 135 -41 28 -78 51
-81 51 -2 0 -3 -227 -2 -504z"/>
<path d="M1350 1453 c0 -71 4 -134 8 -141 7 -9 39 -12 128 -10 l119 3 3 138 3
137 -131 0 -130 0 0 -127z"/>
</g>
</svg>
